<?xml version="1.0" standalone="no"?>
<!DOCTYPE svg PUBLIC "-//W3C//DTD SVG 20010904//EN"
 "http://www.w3.org/TR/2001/REC-SVG-20010904/DTD/svg10.dtd">
<svg version="1.0" xmlns="http://www.w3.org/2000/svg"
 width="500.000000pt" height="500.000000pt" viewBox="0 0 500.000000 500.000000"
 preserveAspectRatio="xMidYMid meet">

<g transform="translate(0.000000,500.000000) scale(0.100000,-0.100000)"
fill="#000000" stroke="none">
<path d="M1585 3220 c-149 -27 -262 -86 -367 -191 -61 -62 -85 -95 -122 -171
-64 -131 -79 -210 -73 -378 4 -108 10 -151 31 -215 72 -225 242 -385 475 -447
104 -28 288 -30 386 -4 143 38 262 108 344 203 43 49 131 215 131 246 0 15
-17 17 -184 17 l-184 0 -21 -34 c-106 -172 -382 -197 -527 -48 -86 88 -127
237 -107 390 19 147 93 256 211 310 47 22 72 26 142 26 74 0 93 -4 152 -31 54
-25 76 -43 114 -92 l47 -61 179 0 c149 0 178 2 178 15 0 29 -42 127 -78 180
-84 125 -184 201 -334 257 -74 27 -98 31 -213 34 -71 1 -152 -1 -180 -6z"/>
<path d="M2493 2983 c-18 -7 -19 -1173 -1 -1191 16 -16 170 -16 186 0 9 9 12
75 12 234 0 165 3 224 13 232 7 6 87 12 182 14 169 3 170 3 243 37 82 38 142
96 175 169 18 39 22 65 22 152 0 118 -15 165 -75 233 -41 47 -139 102 -208
116 -52 11 -524 15 -549 4z m528 -189 c65 -30 91 -76 91 -158 -1 -89 -28 -141
-88 -168 -58 -25 -294 -39 -319 -18 -12 10 -15 42 -15 179 0 120 4 171 13 180
9 9 46 12 142 9 106 -3 139 -7 176 -24z"/>
<path d="M3391 2786 c-8 -9 -10 -152 -9 -512 l3 -499 80 0 80 0 5 215 5 215
162 5 c98 3 166 9 173 16 6 6 10 36 8 70 l-3 59 -170 5 -170 5 0 140 0 140
199 3 c127 1 204 6 213 13 13 12 18 94 7 123 -5 14 -40 16 -289 16 -226 0
-285 -3 -294 -14z"/>
</g>
</svg>
